<?xml version="1.0" encoding="UTF-8"?>
<svg version="1.1" xmlns="http://www.w3.org/2000/svg" width="512" height="512">
<path d="M0 0 C12.06739184 0.91534449 24.13799259 1.29951636 36.23242044 1.6650703 C54.05544968 2.2188662 71.86792004 2.95607539 89.65844572 4.18002272 C91.54912648 4.30947143 93.44017554 4.43366908 95.33157766 4.5521121 C108.49617012 5.3910759 119.29672172 6.70448306 128.6270622 17.13251066 C133.19282274 24.07352234 133.7755407 30.71072786 133.78528059 38.89601469 C133.79021856 39.77825057 133.79515654 40.66048645 133.80024415 41.56945676 C133.81560002 44.52512454 133.82397462 47.48077064 133.83238447 50.43646574 C133.84196449 52.55540485 133.85197464 54.67434206 133.86238325 56.79327726 C133.88942489 62.54691772 133.9104385 68.30056638 133.93038523 74.05423522 C133.95224931 80.06672631 133.97963595 86.07919216 134.00644147 92.09166288 C134.05636262 103.47771605 134.10130362 114.86378322 134.14446384 126.2498638 C134.19384113 139.21226493 134.24875745 152.17464074 134.30414343 165.13701737 C134.41795462 191.80215817 134.52479556 218.46732327 134.6270622 245.13251066 C135.04218061 244.41297209 135.45729902 243.69343351 135.88499677 242.95209074 C146.71568525 224.17889738 157.54637372 205.40570402 168.3770622 186.63251066 C168.99589277 185.55984953 169.61472333 184.4871884 170.25230634 183.38202238 C171.50141738 181.21693996 172.75060349 179.05190084 173.99986494 176.88690519 C177.1390853 171.4463536 180.27696783 166.0050385 183.41221845 160.56219816 C191.28083329 146.90506033 199.1536934 133.25025731 207.14219892 119.6627841 C208.06962975 118.08240049 208.9937068 116.50003828 209.91270673 114.91473722 C218.21058217 100.60467067 218.21058217 100.60467067 225.6270622 98.13251066 C234.75585414 96.89550455 240.88040556 99.51667618 248.6270622 104.13251066 C249.23082685 104.48055754 249.8345915 104.82860441 250.45665205 105.18719816 C252.36194785 106.29132026 254.24656877 107.42421936 256.1270622 108.57001066 C257.0084184 109.09002653 257.0084184 109.09002653 257.90757978 109.62054777 C262.17273822 112.32520717 265.12915808 115.2955064 266.6270622 120.13251066 C268.16673541 130.02239442 265.64946493 136.63496585 260.5020622 144.94501066 C259.86969648 146.01759123 259.23733076 147.09017179 258.58580244 148.1952548 C257.26823125 150.42570643 255.93894309 152.64927652 254.59825361 154.8659091 C252.14912132 158.92454051 249.77270799 163.02287272 247.39732587 167.1249423 C245.67048185 170.10291507 243.93150601 173.07350495 242.1895622 176.04266691 C238.4949291 182.34821485 234.83853539 188.67545502 231.1895622 195.00751066 C230.56702558 196.08766447 229.94448896 197.16781828 229.30308759 198.28070402 C228.04129394 200.470474 226.77965686 202.66033421 225.51817548 204.8502841 C222.39026072 210.27911009 219.25847772 215.70570347 216.1270622 221.13251066 C214.87704341 223.29916649 213.62704342 225.46583316 212.3770622 227.63251066 C204.8770622 240.63251066 197.3770622 253.63251066 189.8770622 266.63251066 C189.25823164 267.70517179 188.63940107 268.77783293 188.00181806 269.88299894 C186.75270702 272.04808137 185.50352091 274.21312048 184.25425947 276.37811613 C180.48335084 282.91344037 176.71504968 289.45025685 172.94957197 295.98871183 C171.70084053 298.15413926 170.45005221 300.31838195 169.19713056 302.48138762 C166.04694595 307.92005827 162.92535809 313.3717486 159.8536247 318.85516691 C159.23817792 319.94104094 158.62273115 321.02691496 157.98863447 322.14569426 C156.8285474 324.19257335 155.67970303 326.24588525 154.54478681 328.30682707 C150.95917975 334.59024947 146.6966699 340.87749042 139.84456098 343.92538786 C137.54239109 345.11291148 136.2202509 346.07094813 134.6270622 348.13251066 C133.5901058 352.97715665 133.74529243 357.81285823 133.8301872 362.74188566 C133.82841782 364.19292346 133.82313241 365.64396083 133.81450117 367.09497404 C133.79925678 370.91258813 133.82305536 374.72887815 133.85771406 378.54632902 C133.90818674 384.64062653 133.90644562 390.734857 133.89130628 396.82929564 C133.89265792 398.9460355 133.91491301 401.06177219 133.93986738 403.17834806 C133.9628238 413.87521524 132.78702204 422.72112389 125.0958122 430.72626066 C117.67863589 437.60400597 110.1643862 438.5772304 100.39941633 438.52019072 C98.732599 438.52826902 98.732599 438.52826902 97.0321086 438.53651053 C93.31893596 438.55078632 89.60611999 438.54368707 85.89293134 438.5365634 C83.22657368 438.54226714 80.56024139 438.54913106 77.89389265 438.55736113 C71.40951145 438.57452928 64.92522724 438.57539331 58.44082922 438.57014822 C53.1688712 438.56610173 47.89694177 438.56755576 42.6249851 438.57289648 C41.49816135 438.57401911 41.49816135 438.57401911 40.34857349 438.57516443 C38.82233333 438.57669595 37.29609319 438.5782343 35.76985305 438.57977939 C21.46750514 438.59349715 7.16521198 438.58807175 -7.13713468 438.57659418 C-20.21238346 438.56666166 -33.28749073 438.57960406 -46.36271768 438.60352837 C-59.80000659 438.62792928 -73.23722961 438.63752487 -86.67454022 438.63087565 C-94.2139348 438.62738574 -101.75322057 438.6296004 -109.29259837 438.64712667 C-115.71036666 438.66186104 -122.12794949 438.66246804 -128.54571419 438.64505576 C-131.817825 438.63655352 -135.08953716 438.636552 -138.36164248 438.64970732 C-141.91417641 438.66289874 -145.46581285 438.65138453 -149.01830828 438.63371611 C-150.04497369 438.64332111 -151.07163909 438.65292612 -152.12941557 438.66282219 C-161.50640945 438.56700598 -168.66128341 435.68808006 -175.3729378 429.13251066 C-179.59210645 423.62415159 -181.5309668 418.40009725 -181.84808505 411.48516035 C-181.90263645 410.37774622 -181.95718785 409.27033209 -182.01339233 408.12935996 C-182.06350046 406.92264884 -182.1136086 405.71593771 -182.16523516 404.47265959 C-182.22480041 403.18190071 -182.28436565 401.89114183 -182.34573591 400.56126904 C-182.50919921 396.98239599 -182.6598508 393.40308777 -182.80711091 389.82351518 C-182.9020843 387.53151748 -183.00025079 385.23967571 -183.09921038 382.94784689 C-184.35718006 353.66868166 -185.13789091 324.37927926 -185.72772963 295.0795963 C-185.82490792 290.25976818 -185.92549256 285.44001671 -186.02821124 280.62030363 C-186.04858969 279.66129384 -186.06896814 278.70228404 -186.08996412 277.71421334 C-186.38343587 264.26159745 -186.87580729 250.82939777 -187.5307237 237.38971327 C-194.76024822 88.89732451 -194.76024822 88.89732451 -154.75215334 44.74116385 C-111.32476826 -0.78689331 -59.61275743 -4.611433 0 0 Z M-88.3729378 20.13251066 C-88.38173716 21.13609869 -88.38173716 21.13609869 -88.39071429 22.15996122 C-88.45487592 29.15246691 -88.53935395 36.14452203 -88.63538897 43.13666105 C-88.66854906 45.74272024 -88.69660845 48.3488497 -88.71937335 50.95502043 C-88.75308269 54.71110176 -88.80540892 58.46654421 -88.86121905 62.22235441 C-88.86760897 63.3789607 -88.87399889 64.535567 -88.88058245 65.72722197 C-89.06397464 75.92296011 -90.913461 84.75341616 -98.3729378 92.13251066 C-104.39145801 96.34338505 -109.64713466 98.22241917 -116.96766436 98.33783293 C-118.08852435 98.35777815 -119.20938433 98.37772337 -120.36420977 98.39827299 C-121.56849627 98.41498549 -122.77278277 98.43169798 -124.0135628 98.44891691 C-125.25088152 98.46969801 -126.48820025 98.49047911 -127.76301348 98.51188993 C-131.0443247 98.56616938 -134.32566513 98.61642845 -137.60706866 98.66473722 C-140.95876884 98.71507159 -144.310375 98.77077427 -147.6620003 98.82587004 C-154.23224244 98.93295576 -160.80255078 99.03474103 -167.3729378 99.13251066 C-167.46447735 139.01507906 -167.5349684 178.89763378 -167.57719912 218.78028623 C-167.58220199 223.48794519 -167.58737928 228.19560396 -167.59266436 232.90326262 C-167.5937136 233.84047948 -167.59476284 234.77769635 -167.59584388 235.74331372 C-167.61325289 250.92202104 -167.64479332 266.10066781 -167.68154898 281.2793392 C-167.71894459 296.85207012 -167.74117073 312.4247693 -167.74929178 327.99754328 C-167.75478241 337.60812473 -167.77212906 347.21853505 -167.80460367 356.82906383 C-167.82573451 363.41783342 -167.83214108 370.00651444 -167.82694331 376.59531546 C-167.82437929 380.39772541 -167.82833167 384.19983613 -167.8497597 388.00219297 C-167.87282402 392.12501629 -167.86489404 396.24720165 -167.85395586 400.37007475 C-167.86560723 401.57144262 -167.8772586 402.7728105 -167.88926303 404.01058346 C-167.84218546 410.55850831 -167.65352681 415.01586575 -163.3729378 420.13251066 C-157.61403048 424.5923936 -151.54159067 424.70182956 -144.51147234 424.63371611 C-143.43968519 424.6392505 -142.36789803 424.6447849 -141.26363248 424.65048701 C-137.68386262 424.66406503 -134.10479338 424.64913905 -130.52503741 424.63421965 C-127.95396405 424.63800381 -125.38289272 424.64350465 -122.81182635 424.65059233 C-116.56068581 424.66450063 -110.30974776 424.65698679 -104.05861693 424.64191674 C-96.77497889 424.62502805 -89.49139088 424.62827047 -82.2077393 424.63201082 C-69.21027439 424.63788488 -56.21290646 424.62373516 -43.2154671 424.5990634 C-30.6102869 424.575139 -18.00523623 424.56806164 -5.40003741 424.57855558 C8.33571898 424.58997029 22.0714155 424.59188841 35.80717117 424.57745749 C37.27236207 424.57593169 38.73755297 424.57441133 40.20274389 424.57289648 C40.92359589 424.57213867 41.6444479 424.57138085 42.3871439 424.57060007 C47.4614857 424.5658619 52.53580072 424.56770533 57.61014211 424.57196188 C64.44165894 424.5774089 71.27299336 424.5666259 78.10447729 424.54500723 C80.61228935 424.53944069 83.12011867 424.53897282 85.62793195 424.54396009 C89.04968078 424.54991177 92.47088099 424.5374092 95.89258039 424.52019072 C96.886162 424.52620076 97.8797436 424.53221081 98.90343374 424.53840297 C104.58129908 424.48640854 108.62090422 423.88301147 113.6270622 421.13251066 C117.50842218 416.94472753 118.75343939 414.48571815 118.74058759 408.85663176 C118.7404743 407.20514631 118.7404743 407.20514631 118.74035871 405.52029753 C118.73261678 403.73119459 118.73261678 403.73119459 118.72471845 401.90594816 C118.7233035 400.68799559 118.72188856 399.47004301 118.72043073 398.21518278 C118.71481859 394.31260076 118.70226399 390.41007544 118.6895622 386.50751066 C118.68454877 383.86688649 118.67998559 381.22626142 118.67589033 378.58563566 C118.66484521 372.10124121 118.64809522 365.61687999 118.6270622 359.13251066 C117.89100751 359.60301847 117.15495283 360.07352629 116.39659345 360.55829191 C115.42077314 361.1809091 114.44495283 361.80352629 113.4395622 362.44501066 C112.47663251 363.05989347 111.51370283 363.67477629 110.52159345 364.30829191 C109.56639814 364.9102841 108.61120283 365.51227629 107.6270622 366.13251066 C106.72834394 366.70203459 105.82962568 367.27155851 104.90367353 367.85834074 C101.22900699 369.9149718 98.66538322 368.88541797 94.6270622 368.13251066 C94.35353197 357.122133 95.05190911 346.35488699 96.17125165 335.40545988 C96.44119731 332.74137379 96.69189261 330.07591285 96.94151533 327.40985441 C97.11288843 325.68447909 97.28537497 323.95921392 97.45909345 322.23407316 C97.53110471 321.45262938 97.60311597 320.67118559 97.67730939 319.86606169 C98.54316063 311.71529992 100.97845281 304.75209467 105.13096845 297.67157316 C105.78903486 296.54106535 106.44710126 295.41055754 107.12510908 294.24579191 C107.81315378 293.08296857 108.50130584 291.92020874 109.1895622 290.75751066 C109.88236539 289.57174824 110.57442803 288.3855528 111.26573408 287.19891691 C116.15509206 278.84046587 116.15509206 278.84046587 118.6270622 275.13251066 C118.9278461 273.15086804 118.9278461 273.15086804 118.88433111 270.95387125 C118.89400445 269.67031395 118.89400445 269.67031395 118.90387321 268.36082619 C118.900776 267.4203751 118.8976788 266.47992401 118.89448774 265.51097441 C118.90128441 264.0127741 118.90128441 264.0127741 118.90821838 262.48430711 C118.920926 259.12179665 118.91923791 255.75944684 118.91758955 252.39691496 C118.92357085 249.99244302 118.93037547 247.587973 118.93794477 245.18350554 C118.95381195 239.32043662 118.96005496 233.45740566 118.96116953 227.59431966 C118.96211944 222.82851341 118.96622692 218.06272044 118.97257078 213.29691839 C118.99018784 199.78733561 118.99940905 186.27778463 118.99790983 172.76819029 C118.99782992 172.03964892 118.99775 171.31110755 118.99766767 170.56048918 C118.99754503 169.4663438 118.99754503 169.4663438 118.99741991 168.35009447 C118.99660712 156.53024019 119.01574179 144.71051337 119.0439444 132.89069595 C119.07266883 120.75648975 119.08648491 108.62234571 119.08475685 96.48810464 C119.08409274 89.67474714 119.08959393 82.86152321 119.11111295 76.04819632 C119.13122161 69.64027678 119.13065549 63.23256659 119.11607969 56.82463026 C119.11398393 54.47119756 119.11873784 52.11774742 119.1308006 49.76434469 C119.1461902 46.55422796 119.13698577 43.34509279 119.12153852 40.13499784 C119.13696921 38.73435946 119.13696921 38.73435946 119.15271163 37.30542535 C119.09345253 31.7418057 118.3428341 28.54745216 114.6270622 24.13251066 C109.82147484 19.77744712 104.98166815 19.98793224 98.74309003 20.01225615 C97.94337962 20.01140172 97.14366921 20.0105473 96.31972516 20.00966698 C93.63731739 20.00801853 90.95497203 20.0135232 88.27257001 20.01898527 C86.35082219 20.01926731 84.42907425 20.01910909 82.50732648 20.01854277 C77.28664606 20.01825543 72.06598853 20.02414196 66.84531343 20.03111672 C61.39070791 20.03736077 55.93610189 20.0379549 50.48149335 20.03914213 C40.15078383 20.04225234 29.82008487 20.05046156 19.48938 20.06049162 C7.72893201 20.07166238 -4.03151649 20.07716564 -15.79196846 20.08218706 C-39.98563077 20.09264441 -64.17928369 20.11023787 -88.3729378 20.13251066 Z M-109.16810381 36.79828215 C-109.66568194 37.29410795 -110.16326006 37.78993376 -110.67591631 38.30078459 C-112.32875991 39.94920767 -113.97789637 41.60128482 -115.62684405 43.25360441 C-116.76870077 44.39478816 -117.91070596 45.53582337 -119.05285418 46.67671537 C-121.44951098 49.07189493 -123.84434201 51.46888164 -126.23792803 53.8671298 C-129.31385787 56.94875694 -132.394254 60.0258742 -135.47602713 63.10165644 C-137.83604151 65.45806592 -140.19367946 67.81684141 -142.55059397 70.17635107 C-143.68581835 71.31224491 -144.82179257 72.44738983 -145.95851099 73.58178854 C-147.54382175 75.16457394 -149.12591511 76.75050507 -150.70716631 78.33734465 C-152.06165629 79.69302801 -152.06165629 79.69302801 -153.4435097 81.07609892 C-155.48697649 82.78408065 -155.48697649 82.78408065 -155.3729378 84.13251066 C-149.35898897 84.23161237 -143.34551864 84.30408983 -137.33094561 84.35223722 C-135.286265 84.37231486 -133.24164153 84.39958291 -131.19715655 84.43426847 C-128.25300243 84.48295585 -125.30960946 84.5055181 -122.3651253 84.52313566 C-121.4555205 84.5437808 -120.5459157 84.56442595 -119.60874712 84.5856967 C-114.03908513 84.58765236 -110.69818528 83.99383848 -106.3729378 80.13251066 C-102.4783145 75.66124754 -102.98474074 70.86394392 -103.07996905 65.23797941 C-103.08633631 63.81694662 -103.08633631 63.81694662 -103.09283221 62.3672061 C-103.1095809 59.35118119 -103.14722633 56.3358325 -103.1854378 53.32001066 C-103.20048955 51.27119221 -103.2141771 49.22236325 -103.22645342 47.17352629 C-103.25947201 42.15959516 -103.31122833 37.14616744 -103.3729378 32.13251066 C-105.52480856 32.13251066 -107.81909349 35.45045934 -109.16810381 36.79828215 Z M228.33409345 114.05829191 C224.87853016 117.65852439 222.66562786 121.95573618 220.3145622 126.32001066 C219.86016767 127.13920988 219.40577314 127.9584091 218.93760908 128.80243254 C216.52502019 132.74992581 216.52502019 132.74992581 215.6270622 137.13251066 C227.0120622 143.56751066 227.0120622 143.56751066 238.6270622 150.13251066 C242.38280241 146.37677045 244.71172032 142.25881217 247.3770622 137.69501066 C248.15630048 136.40627043 248.15630048 136.40627043 248.95128095 135.09149504 C249.43725751 134.26069426 249.92323408 133.42989347 250.4239372 132.57391691 C250.87091962 131.81796232 251.31790205 131.06200773 251.77842939 130.28314543 C252.78564794 127.73061716 252.65752916 126.6443372 251.6270622 124.13251066 C249.90477967 122.55406703 249.90477967 122.55406703 247.6895622 121.25751066 C246.4829997 120.49954191 246.4829997 120.49954191 245.2520622 119.72626066 C244.3858122 119.20032316 243.5195622 118.67438566 242.6270622 118.13251066 C241.7195622 117.56532316 240.8120622 116.99813566 239.8770622 116.41376066 C234.15787517 112.070182 234.15787517 112.070182 228.33409345 114.05829191 Z M207.6270622 149.13251066 C206.78056817 150.40515198 205.98678968 151.71283696 205.2129997 153.03094816 C204.7072038 153.88914152 204.2014079 154.74733488 203.68028486 155.6315341 C203.12647138 156.58060637 202.5726579 157.52967863 202.0020622 158.50751066 C201.13460371 159.98525969 201.13460371 159.98525969 200.2496208 161.49286222 C193.95571034 172.23577116 187.74194668 183.02516174 181.53428876 193.81805754 C178.40341296 199.25901631 175.26489678 204.69556314 172.1270622 210.13251066 C170.87702462 212.29915564 169.62702464 214.46582232 168.3770622 216.63251066 C160.8770622 229.63251066 153.3770622 242.63251066 145.8770622 255.63251066 C145.2573454 256.70670256 144.63762861 257.78089445 143.99913251 258.88763762 C142.75895459 261.03724701 141.51872093 263.18682425 140.27842939 265.33636808 C137.3535599 270.40560278 134.42925387 275.47516002 131.50694501 280.54587126 C130.12899283 282.93677663 128.75072048 285.32749738 127.37242353 287.71820402 C126.40165238 289.40235029 125.43134346 291.08676298 124.46104658 292.77118254 C123.87130048 293.79405363 123.28155439 294.81692472 122.6739372 295.87079191 C122.15670087 296.76838224 121.63946455 297.66597258 121.10655439 298.59076262 C120.09112587 300.33525541 119.00884946 302.04200664 117.87413251 303.71136808 C116.4474486 305.9984397 116.4474486 305.9984397 116.69835126 308.28827238 C117.9121857 310.69871016 119.11837425 311.36795495 121.4864372 312.64032316 C122.27276533 313.06958097 123.05909345 313.49883879 123.8692497 313.94110441 C124.69682783 314.37551847 125.52440595 314.80993254 126.3770622 315.25751066 C127.18917158 315.6996591 128.00128095 316.14180754 128.8379997 316.59735441 C132.70440214 318.68168537 136.52551019 320.54786102 140.6270622 322.13251066 C141.03319746 321.42046476 141.43933271 320.70841887 141.85777509 319.97479582 C151.11897754 303.74205611 160.4178608 287.53191261 169.76817548 271.3502841 C172.26395564 267.03003423 174.75712517 262.70828079 177.25010908 258.38641691 C179.12415783 255.13754571 180.99865648 251.88893434 182.87315595 248.64032316 C185.38775656 244.28185678 187.90060881 239.92238875 190.41221845 235.56219816 C196.43453541 225.11044881 202.4737301 214.66950027 208.5645622 204.25751066 C216.3535891 190.9405335 223.99385755 177.53920461 231.6270622 164.13251066 C228.984715 161.32532185 226.45807611 159.24857145 223.11534345 157.33563566 C222.27551923 156.85223722 221.43569501 156.36883879 220.57042158 155.87079191 C219.70223798 155.3796591 218.83405439 154.88852629 217.9395622 154.38251066 C217.05977705 153.8759091 216.17999189 153.36930754 215.27354658 152.84735441 C211.65254333 150.36911858 211.65254333 150.36911858 207.6270622 149.13251066 Z M111.6270622 323.13251066 C111.28855043 325.81944788 110.9561262 328.50691355 110.6270622 331.19501066 C110.48397626 332.32326262 110.48397626 332.32326262 110.3379997 333.47430754 C109.78134318 338.06672384 109.52877192 342.50672417 109.6270622 347.13251066 C112.6372517 345.14753063 115.63434105 343.14372443 118.6270622 341.13251066 C119.55905439 340.50989347 120.49104658 339.88727629 121.45128095 339.24579191 C122.80673017 338.32346769 122.80673017 338.32346769 124.1895622 337.38251066 C125.03647626 336.81016691 125.88339033 336.23782316 126.75596845 335.64813566 C127.37342939 335.14797941 127.99089033 334.64782316 128.6270622 334.13251066 C128.6270622 333.47251066 128.6270622 332.81251066 128.6270622 332.13251066 C125.98265844 330.62994077 123.33664369 329.13034946 120.6895622 327.63251066 C119.93481611 327.20325285 119.18007001 326.77399504 118.40245283 326.33172941 C117.68380048 325.92567472 116.96514814 325.51962004 116.22471845 325.10126066 C115.55964277 324.72420988 114.89456708 324.3471591 114.20933759 323.95868254 C112.77681921 323.05536959 112.77681921 323.05536959 111.6270622 323.13251066 Z " fill="#000000" transform="translate(213.37293779850006,33.86748933792114)"/>
<path d="M0 0 C8.67717077 6.47506524 15.34176119 14.54115744 17.38671875 25.421875 C18.38390634 40.08543672 16.05977978 49.98574373 6.38671875 61.421875 C5.72671875 62.411875 5.06671875 63.401875 4.38671875 64.421875 C5.26457031 64.67582031 6.14242187 64.92976563 7.046875 65.19140625 C20.78885297 70.25424024 30.57896959 82.71757921 36.8671875 95.41015625 C42.50394346 108.15484495 42.73351146 120.5164939 42.70239258 134.23876953 C42.69921095 137.1790809 42.72283126 140.11840463 42.74804688 143.05859375 C42.75031836 144.94531124 42.75102406 146.83203142 42.75 148.71875 C42.75920975 149.58868591 42.76841949 150.45862183 42.77790833 151.35491943 C42.73249744 157.36853927 41.9819407 162.47666129 37.8515625 167.1640625 C34.03042567 169.99815375 31.92848484 171.54262222 27.20037842 171.56904602 C26.32281387 171.57620132 25.44524933 171.58335663 24.54109192 171.59072876 C23.5758812 171.59341766 22.61067047 171.59610657 21.61621094 171.59887695 C20.60143173 171.60544815 19.58665253 171.61201935 18.54112244 171.61878967 C15.17194552 171.63855276 11.80281324 171.6501922 8.43359375 171.66015625 C6.70994976 171.66626954 6.70994976 171.66626954 4.95148468 171.67250633 C-1.13081178 171.69338025 -7.2130856 171.70767607 -13.29541016 171.71704102 C-19.58150556 171.72810612 -25.86724705 171.7625038 -32.15321732 171.80221272 C-36.98307966 171.82834565 -41.81285729 171.83672994 -46.64278412 171.84032249 C-48.96003356 171.84519729 -51.277279 171.85683654 -53.59445953 171.87536049 C-56.83832404 171.89967972 -60.08126776 171.89879968 -63.32519531 171.8918457 C-64.76086601 171.91106079 -64.76086601 171.91106079 -66.22554016 171.93066406 C-71.85901187 171.88665431 -75.18281324 171.25106521 -79.61328125 167.421875 C-84.17389579 161.38214223 -84.77973843 156.85566511 -84.81640625 149.46875 C-84.82210632 148.57633606 -84.8278064 147.68392212 -84.8336792 146.76446533 C-84.8431338 144.86805403 -84.849665 142.97162627 -84.85351562 141.07519531 C-84.86310492 138.22429913 -84.89407352 135.37416084 -84.92578125 132.5234375 C-85.00614967 119.01880966 -84.61038549 105.44686417 -78.11328125 93.234375 C-77.77216309 92.57638916 -77.43104492 91.91840332 -77.07958984 91.24047852 C-70.51682549 79.21554668 -59.90150695 68.44861006 -46.61328125 64.421875 C-47.2165625 63.68324219 -47.81984375 62.94460937 -48.44140625 62.18359375 C-57.59710848 50.56175882 -61.08561858 40.32553449 -59.61328125 25.421875 C-57.32907099 14.9504392 -51.30195291 6.59395466 -42.61328125 0.421875 C-29.46073107 -7.62314563 -13.38759095 -8.08458407 0 0 Z M-40.05078125 17.671875 C-44.16891163 23.08862036 -45.96786541 28.68590319 -45.55078125 35.484375 C-44.43689959 43.0470452 -41.51369235 48.46558351 -35.453125 53.16796875 C-29.13059033 57.47695735 -23.09485859 58.50094866 -15.61328125 57.421875 C-7.85654467 54.91430929 -2.28566632 50.60944602 1.44921875 43.359375 C4.09261136 36.75089347 4.19959356 29.76678156 1.44140625 23.15625 C-1.87253719 17.40622893 -6.43105522 13.01298802 -12.36328125 10.046875 C-23.07295293 7.98732275 -32.30430747 9.48656158 -40.05078125 17.671875 Z M-59.60546875 91.67578125 C-66.99567753 101.78340143 -69.9451158 112.02215612 -69.84375 124.35546875 C-69.84329178 125.27401138 -69.84283356 126.19255402 -69.84236145 127.13893127 C-69.83935904 129.06423244 -69.8315337 130.98953162 -69.8190918 132.91479492 C-69.80068456 135.8749236 -69.79858342 138.83474158 -69.79882812 141.79492188 C-69.79391786 143.66927356 -69.7880917 145.54362312 -69.78125 147.41796875 C-69.78013718 148.30640976 -69.77902435 149.19485077 -69.77787781 150.11021423 C-70.14408039 154.08356982 -70.14408039 154.08356982 -68.61328125 157.421875 C-65.6661871 157.52247269 -62.74248984 157.5580255 -59.79492188 157.55126953 C-58.40722847 157.55389801 -58.40722847 157.55389801 -56.99150085 157.55657959 C-53.9174922 157.56099967 -50.84354055 157.55805957 -47.76953125 157.5546875 C-45.6434325 157.55536049 -43.51733383 157.55633048 -41.39123535 157.55758667 C-36.92894765 157.55906386 -32.46667992 157.55690842 -28.00439453 157.55224609 C-22.27057556 157.5465488 -16.5368034 157.54982769 -10.80298615 157.55581856 C-6.41082402 157.55942361 -2.01867308 157.55828584 2.37348938 157.55569077 C4.48830674 157.55502134 6.60312509 157.55585045 8.71794128 157.55817032 C11.66810821 157.56069593 14.61819821 157.55685754 17.56835938 157.55126953 C18.89309013 157.55430588 18.89309013 157.55430588 20.24458313 157.55740356 C24.12756788 157.9284993 24.12756788 157.9284993 27.38671875 156.421875 C27.52551649 153.47132228 27.60001212 150.54603319 27.625 147.59375 C27.63307175 146.69376282 27.64114349 145.79377563 27.64945984 144.86651611 C27.66333118 142.94976744 27.6740396 141.03299375 27.68188477 139.11621094 C27.69890359 136.22540711 27.74273559 133.33580615 27.78710938 130.4453125 C27.93233389 113.37315834 25.11041829 99.74514279 13.19921875 86.671875 C2.39484707 76.61679979 -10.3428082 72.72525598 -24.83984375 73.078125 C-38.9269801 74.36142521 -50.51413713 80.97147144 -59.60546875 91.67578125 Z " fill="#000000" transform="translate(266.61328125,75.578125)"/>
<path d="M0 0 C3.375 0.5625 3.375 0.5625 5.875 2.125 C7.375 4.5625 7.375 4.5625 7.5 7.9375 C6.375 11.5625 6.375 11.5625 3.34838867 13.97045898 C0.26041174 16.95544363 -0.11712899 19.2466197 -0.3503418 23.48852539 C-0.37098511 25.87899574 -0.36041475 28.26987081 -0.32421875 30.66015625 C-0.33081009 31.9271788 -0.33740143 33.19420135 -0.3441925 34.49961853 C-0.35870858 37.85702044 -0.34928584 41.21242122 -0.32568359 44.56964111 C-0.29534062 49.30019442 -0.29609114 54.03048588 -0.3129425 58.76109314 C-0.32033528 61.27636663 -0.31209066 63.7917454 -0.2865448 66.30690002 C-0.28697281 67.44835983 -0.28740082 68.58981964 -0.2878418 69.76586914 C-0.28084763 70.76703262 -0.27385345 71.76819611 -0.26664734 72.79969788 C-0.68998385 76.06350793 -1.7019387 77.91347213 -3.625 80.5625 C-8.40972606 83.99768794 -12.40437722 84.6833566 -18.20043945 84.72363281 C-19.8778698 84.73804413 -19.8778698 84.73804413 -21.58918762 84.75274658 C-23.39548897 84.7591214 -23.39548897 84.7591214 -25.23828125 84.765625 C-26.48119431 84.77132507 -27.72410736 84.77702515 -29.00468445 84.78289795 C-31.63486887 84.79234402 -34.26506511 84.79888037 -36.89526367 84.80273438 C-39.58485446 84.80712408 -42.27412535 84.82103658 -44.96362305 84.84375 C-48.84694132 84.8742429 -52.72985652 84.88478585 -56.61328125 84.890625 C-58.41047356 84.9091452 -58.41047356 84.9091452 -60.24397278 84.92803955 C-67.72084861 84.90814243 -73.16778208 84.56482083 -79 79.5 C-81.77353627 76.19309138 -81.76250635 74.0883371 -81.80200195 69.83105469 C-81.81483719 68.62930603 -81.82767242 67.42755737 -81.84089661 66.18939209 C-81.84828354 64.88423645 -81.85567047 63.57908081 -81.86328125 62.234375 C-81.86735678 61.57071175 -81.8714323 60.90704849 -81.87563133 60.22327423 C-81.89649397 56.70858573 -81.91079315 53.19393625 -81.92016602 49.67919922 C-81.93121365 46.05648824 -81.96559275 42.43439438 -82.00533772 38.81190109 C-82.03154443 36.02025243 -82.03986151 33.22874967 -82.04344749 30.43698883 C-82.05066057 28.4550348 -82.07708531 26.47318066 -82.10383606 24.49139404 C-82.07962799 14.44300436 -82.07962799 14.44300436 -79.97338867 10.88378906 C-76.59489935 7.54428636 -73.35082951 5.74851849 -68.59008789 5.23538208 C-67.52008545 5.25712494 -66.45008301 5.2788678 -65.34765625 5.30126953 C-64.12618896 5.31763458 -62.90472168 5.33399963 -61.64624023 5.3508606 C-60.33985596 5.38202972 -59.03347168 5.41319885 -57.6875 5.4453125 C-56.32041985 5.46363178 -54.95331029 5.47986351 -53.58618164 5.49411011 C-47.80266286 5.55803178 -42.01999565 5.65890698 -36.23730469 5.77490234 C-32.69023994 5.84460331 -29.1435241 5.88960675 -25.59591675 5.92007065 C-23.59820071 5.94486933 -21.60090415 5.99819333 -19.60375977 6.05203247 C-12.24614582 6.34630631 -12.24614582 6.34630631 -5.98046875 3.07373047 C-3.625 0.5625 -3.625 0.5625 0 0 Z M-67.625 20.5625 C-67.625 36.7325 -67.625 52.9025 -67.625 69.5625 C-50.135 69.5625 -32.645 69.5625 -14.625 69.5625 C-14.625 57.6825 -14.625 45.8025 -14.625 33.5625 C-18.75435186 37.10194445 -22.57178879 40.39008075 -26.32421875 44.234375 C-27.14083984 45.06324219 -27.95746094 45.89210938 -28.79882812 46.74609375 C-30.48815888 48.47086501 -32.1756316 50.19745792 -33.86132812 51.92578125 C-34.67408203 52.74949219 -35.48683594 53.57320313 -36.32421875 54.421875 C-37.05471436 55.16920898 -37.78520996 55.91654297 -38.5378418 56.68652344 C-41.48920131 59.33926019 -43.49881418 60.52244414 -47.48046875 60.6640625 C-52.16185166 59.02412464 -54.11432438 55.88221113 -56.9375 51.9375 C-57.47439453 51.23753906 -58.01128906 50.53757812 -58.56445312 49.81640625 C-61.73088485 45.51197573 -63.70015987 42.09699949 -63.625 36.5625 C-62.48046875 34.63671875 -62.48046875 34.63671875 -60.625 33.5625 C-58.36328125 33.26953125 -58.36328125 33.26953125 -55.9375 33.375 C-54.72513672 33.41560547 -54.72513672 33.41560547 -53.48828125 33.45703125 C-52.87339844 33.49183594 -52.25851563 33.52664063 -51.625 33.5625 C-51.2846875 34.3978125 -51.2846875 34.3978125 -50.9375 35.25 C-49.26603234 38.19496684 -47.07223648 40.24406544 -44.625 42.5625 C-37.49715832 35.56373392 -30.62456773 28.56192364 -24.625 20.5625 C-38.815 20.5625 -53.005 20.5625 -67.625 20.5625 Z " fill="#000000" transform="translate(289.625,348.4375)"/>
<path d="M0 0 C3.16882285 0.10752493 5.26986723 0.22292923 7.76953125 2.25390625 C9.14785328 5.52742108 9.45080312 7.0862925 8.76953125 10.62890625 C7.63934003 11.79050637 6.47075381 12.91516373 5.28027344 14.01489258 C0.42492194 19.42320866 0.8337795 24.72108139 0.97265625 31.703125 C0.96489166 33.56611992 0.96489166 33.56611992 0.95697021 35.4667511 C0.9471173 38.74848059 0.96541625 42.0283038 1.00018311 45.30981445 C1.04482121 49.93922228 1.04834935 54.56859514 1.03924561 59.19819641 C1.03656687 61.65786214 1.05031673 64.11761338 1.08233643 66.57707214 C1.08513611 67.69205582 1.08793579 68.80703949 1.09082031 69.95581055 C1.10083069 70.93317673 1.11084106 71.91054291 1.12115479 72.91752625 C0.7014896 76.15357752 -0.3273384 77.99992413 -2.23046875 80.62890625 C-7.01519481 84.06409419 -11.00984597 84.74976285 -16.8059082 84.79003906 C-18.48333855 84.80445038 -18.48333855 84.80445038 -20.19465637 84.81915283 C-22.00095772 84.82552765 -22.00095772 84.82552765 -23.84375 84.83203125 C-25.08666306 84.83773132 -26.32957611 84.8434314 -27.6101532 84.8493042 C-30.24033762 84.85875027 -32.87053386 84.86528662 -35.50073242 84.86914062 C-38.19032321 84.87353033 -40.8795941 84.88744283 -43.5690918 84.91015625 C-47.45241007 84.94064915 -51.33532527 84.9511921 -55.21875 84.95703125 C-57.01594231 84.97555145 -57.01594231 84.97555145 -58.84944153 84.9944458 C-66.32799001 84.97454423 -71.7111694 84.59252675 -77.60546875 79.62890625 C-80.39964982 76.18991416 -80.36706387 73.1492045 -80.4074707 68.87573242 C-80.42030594 67.69408005 -80.43314117 66.51242767 -80.44636536 65.29496765 C-80.45375229 64.01684708 -80.46113922 62.7387265 -80.46875 61.421875 C-80.47682175 60.10858719 -80.48489349 58.79529938 -80.49320984 57.44221497 C-80.50822325 54.66061533 -80.51806768 51.87904111 -80.52563477 49.09741211 C-80.5366922 45.5431064 -80.57108947 41.98942795 -80.61080647 38.43534374 C-80.64331535 35.03504636 -80.64775478 31.63481576 -80.65625 28.234375 C-80.67375809 26.96232712 -80.69126617 25.69027924 -80.70930481 24.37968445 C-80.68149841 13.05865019 -80.68149841 13.05865019 -76.23046875 8.62890625 C-71.94929151 6.09582203 -68.90700392 5.26701107 -63.953125 5.36767578 C-62.73165771 5.38404083 -61.51019043 5.40040588 -60.25170898 5.41726685 C-58.94532471 5.44843597 -57.63894043 5.4796051 -56.29296875 5.51171875 C-54.9258886 5.53003803 -53.55877904 5.54626976 -52.19165039 5.56051636 C-46.40813161 5.62443803 -40.6254644 5.72531323 -34.84277344 5.84130859 C-31.29570869 5.91100956 -27.74899285 5.956013 -24.2013855 5.9864769 C-22.20366946 6.01127558 -20.2063729 6.06459958 -18.20922852 6.11843872 C-10.82288769 6.3965237 -10.82288769 6.3965237 -4.4987793 3.14428711 C-2.23046875 0.62890625 -2.23046875 0.62890625 0 0 Z M-66.23046875 20.62890625 C-66.23046875 36.79890625 -66.23046875 52.96890625 -66.23046875 69.62890625 C-48.74046875 69.62890625 -31.25046875 69.62890625 -13.23046875 69.62890625 C-13.23046875 57.74890625 -13.23046875 45.86890625 -13.23046875 33.62890625 C-17.46582046 37.25920771 -21.28501423 40.57734793 -25.078125 44.5546875 C-25.93083984 45.43318359 -26.78355469 46.31167969 -27.66210938 47.21679688 C-29.42767584 49.04527885 -31.18541733 50.88134655 -32.93554688 52.72460938 C-33.78697266 53.59666016 -34.63839844 54.46871094 -35.515625 55.3671875 C-36.2775415 56.16165283 -37.03945801 56.95611816 -37.82446289 57.7746582 C-40.69204624 59.98463239 -42.64438343 60.41556886 -46.23046875 60.62890625 C-51.08954882 58.69868886 -53.58096608 54.96165333 -56.48046875 50.81640625 C-56.92648438 50.21248047 -57.3725 49.60855469 -57.83203125 48.98632812 C-60.48530128 45.25164955 -61.99451271 42.32836404 -62.23046875 37.62890625 C-61.79296875 35.25390625 -61.79296875 35.25390625 -61.23046875 33.62890625 C-53.2130015 32.84288005 -53.2130015 32.84288005 -49.41796875 35.87890625 C-48.69609375 36.78640625 -47.97421875 37.69390625 -47.23046875 38.62890625 C-45.90805886 39.97307426 -44.57643946 41.30833122 -43.23046875 42.62890625 C-40.23657999 39.65966323 -37.24593329 36.6872048 -34.25830078 33.71166992 C-33.24064087 32.69905115 -32.22208696 31.68733002 -31.20263672 30.67651367 C-29.74082468 29.22677685 -28.28221633 27.77388417 -26.82421875 26.3203125 C-25.94443359 25.44576416 -25.06464844 24.57121582 -24.15820312 23.67016602 C-22.11603532 21.97567552 -22.11603532 21.97567552 -22.23046875 20.62890625 C-36.75046875 20.62890625 -51.27046875 20.62890625 -66.23046875 20.62890625 Z " fill="#000000" transform="translate(170.23046875,348.37109375)"/>
<path d="M0 0 C3.51564662 -0.48491678 5.78370587 -0.72977648 8.875 1.125 C10.52239677 3.87066128 10.93697973 5.78596639 11 9 C9.4068403 11.90182659 7.94885664 14.21782363 5.38243103 16.3334198 C3.40928164 18.71213645 3.62812223 20.41565487 3.63110352 23.4777832 C3.62422012 24.59937332 3.61733673 25.72096344 3.61024475 26.87654114 C3.61948219 28.69528999 3.61948219 28.69528999 3.62890625 30.55078125 C3.61152132 33.11132944 3.59393697 35.67187629 3.57617188 38.23242188 C3.56308941 42.27466014 3.56249844 46.31687614 3.56420898 50.35913086 C3.5606392 54.25661698 3.53329075 58.15341708 3.50390625 62.05078125 C3.51208878 63.25720779 3.5202713 64.46363434 3.52870178 65.70661926 C3.43187491 76.61939183 3.43187491 76.61939183 -1 81 C-7.30715947 85.00164555 -14.06640269 84.434295 -21.34375 84.3984375 C-22.6268103 84.40130768 -23.90987061 84.40417786 -25.23181152 84.40713501 C-27.93834356 84.41153968 -30.64457709 84.40518796 -33.35107422 84.39111328 C-36.804235 84.37402195 -40.25669607 84.38387322 -43.70983124 84.40183067 C-47.02535886 84.41533491 -50.34070256 84.40585431 -53.65625 84.3984375 C-54.8887146 84.40451019 -56.1211792 84.41058289 -57.39099121 84.4168396 C-65.12845307 84.35365934 -70.62827972 84.26763793 -76.40429688 78.66992188 C-79.36514007 73.51627079 -78.56741869 67.01911631 -78.53125 61.28125 C-78.53394818 59.93656128 -78.53783331 58.59187447 -78.54284668 57.24719238 C-78.54872659 54.43625211 -78.54022858 51.62582211 -78.52148438 48.81494141 C-78.49869447 45.22359852 -78.51182584 41.63345149 -78.53577423 38.0421524 C-78.55027382 35.26758927 -78.54560748 32.49330662 -78.53526306 29.71873474 C-78.53132189 27.75457985 -78.54340529 25.79041377 -78.55578613 23.82629395 C-78.45154618 13.8935254 -78.45154618 13.8935254 -76.40429688 10.33007812 C-70.43208136 4.5422202 -64.87836542 4.68150608 -56.8822937 4.7883606 C-54.92575363 4.83511429 -54.92575363 4.83511429 -52.9296875 4.8828125 C-51.561641 4.90113569 -50.19356503 4.9173665 -48.82546997 4.93161011 C-43.04373022 4.99547927 -37.26284846 5.09662324 -31.48193359 5.21240234 C-27.93372053 5.28201175 -24.38585443 5.32706895 -20.83710098 5.35757065 C-18.83767538 5.3824028 -16.83866908 5.43573055 -14.83981323 5.48953247 C-8.75353386 5.78484942 -8.75353386 5.78484942 -3.16412354 3.87786865 C-1.69323023 2.38230268 -1.69323023 2.38230268 0 0 Z M-64 20 C-64 36.17 -64 52.34 -64 69 C-46.51 69 -29.02 69 -11 69 C-11 57.12 -11 45.24 -11 33 C-15.24225969 36.63622259 -19.03490762 39.93139561 -22.8125 43.92578125 C-23.66070312 44.80427734 -24.50890625 45.68277344 -25.3828125 46.58789062 C-27.13738693 48.41448117 -28.88211881 50.25057411 -30.6171875 52.09570312 C-37.81200668 59.49280826 -37.81200668 59.49280826 -41.8125 60.35546875 C-47.12011003 59.76356616 -49.48304838 56.72961501 -52.7109375 52.79296875 C-53.60647206 51.59673417 -54.49440158 50.39477203 -55.375 49.1875 C-55.83777344 48.59646484 -56.30054688 48.00542969 -56.77734375 47.39648438 C-59.26646784 43.98972797 -60.01222358 42.54394931 -59.9140625 38.17578125 C-59 35 -59 35 -57 33 C-53.875 32.3125 -53.875 32.3125 -50 33 C-46.96927094 35.72395369 -44.46995856 38.7665997 -42 42 C-36.76619303 37.62374788 -31.87123062 33.02454503 -27.0625 28.1875 C-26.37865234 27.50751953 -25.69480469 26.82753906 -24.99023438 26.12695312 C-24.34505859 25.48048828 -23.69988281 24.83402344 -23.03515625 24.16796875 C-22.4512915 23.58297607 -21.86742676 22.9979834 -21.26586914 22.39526367 C-19.88801155 21.19055236 -19.88801155 21.19055236 -20 20 C-34.52 20 -49.04 20 -64 20 Z " fill="#000000" transform="translate(286,260)"/>
<path d="M0 0 C3.4375 0.5625 3.4375 0.5625 5.875 2.1875 C7.4375 4.5625 7.4375 4.5625 8.125 7.3125 C7.34212571 11.01336029 6.61632283 11.47743179 3.94213867 13.95068359 C-0.90474331 19.35436399 -0.48167926 24.63017091 -0.32421875 31.6015625 C-0.32702347 32.84118744 -0.32982819 34.08081238 -0.3327179 35.35800171 C-0.33798095 39.30206043 -0.29744252 43.24375021 -0.25 47.1875 C-0.21514851 51.13785677 -0.19722332 55.08788653 -0.19941711 59.03842163 C-0.19928738 61.49149415 -0.17909971 63.94466854 -0.13639832 66.39736938 C-0.12397842 71.21337388 -0.19577315 74.72715577 -2.14770508 79.17333984 C-8.72588413 85.68168685 -16.09809635 85.0170437 -24.87109375 84.99609375 C-26.79212669 85.00395653 -26.79212669 85.00395653 -28.75196838 85.01197815 C-31.45429386 85.02087777 -34.15632332 85.01852264 -36.85864258 85.00854492 C-40.30288192 84.99706006 -43.74609519 85.0172735 -47.19019985 85.04646206 C-50.5005501 85.06933667 -53.8106666 85.06235254 -57.12109375 85.05859375 C-58.96204872 85.07544472 -58.96204872 85.07544472 -60.8401947 85.09263611 C-67.29232789 85.0403686 -73.44408179 84.94895542 -78.5625 80.5625 C-81.35957155 76.80734437 -81.94020923 74.11532623 -81.95068359 69.47460938 C-81.96014008 68.26985962 -81.96959656 67.06510986 -81.9793396 65.82385254 C-81.97023056 63.88463928 -81.97023056 63.88463928 -81.9609375 61.90625 C-81.96296025 60.55773766 -81.96587337 59.20922639 -81.96963501 57.86071777 C-81.97404895 55.03968858 -81.96765772 52.2189451 -81.95361328 49.39794922 C-81.93652146 45.78984585 -81.94636771 42.18241202 -81.96433067 38.57433319 C-81.97519396 35.79126989 -81.97171061 33.00836418 -81.9639473 30.22529602 C-81.96098524 28.25057539 -81.97006386 26.27584853 -81.9793396 24.30114746 C-81.96988312 23.09639771 -81.96042664 21.89164795 -81.95068359 20.65039062 C-81.94829681 19.59291626 -81.94591003 18.53544189 -81.94345093 17.44592285 C-81.50416963 14.12099664 -80.53011955 12.25621613 -78.5625 9.5625 C-73.60324855 6.00201178 -69.59588864 5.43023174 -63.58813477 5.52832031 C-61.78089684 5.5526413 -61.78089684 5.5526413 -59.93714905 5.57745361 C-58.63917892 5.59830017 -57.3412088 5.61914673 -56.00390625 5.640625 C-53.96205501 5.66266648 -51.92018889 5.68115384 -49.87830257 5.69962692 C-44.84589589 5.74530486 -39.81387088 5.79835087 -34.78198242 5.88476562 C-31.27605024 5.94425248 -27.77061137 5.97915185 -24.26423454 5.99794769 C-22.28485365 6.01535287 -20.3057614 6.05913461 -18.32679749 6.10333252 C-12.27853915 6.35902709 -12.27853915 6.35902709 -6.73117065 4.43811035 C-2.95403282 0.46642624 -2.95403282 0.46642624 0 0 Z M-67.5625 20.5625 C-67.5625 36.7325 -67.5625 52.9025 -67.5625 69.5625 C-50.0725 69.5625 -32.5825 69.5625 -14.5625 69.5625 C-14.5625 57.6825 -14.5625 45.8025 -14.5625 33.5625 C-18.80475969 37.19872259 -22.59740762 40.49389561 -26.375 44.48828125 C-27.22320312 45.36677734 -28.07140625 46.24527344 -28.9453125 47.15039062 C-30.69988693 48.97698117 -32.44461881 50.81307411 -34.1796875 52.65820312 C-41.37450668 60.05530826 -41.37450668 60.05530826 -45.375 60.91796875 C-50.71733862 60.32219324 -52.72873692 57.60335907 -55.984375 53.5390625 C-56.76830808 52.4273982 -57.54428176 51.31008154 -58.3125 50.1875 C-58.90998047 49.35992187 -58.90998047 49.35992187 -59.51953125 48.515625 C-62.02237053 44.9013554 -63.28619354 41.95828463 -63.5625 37.5625 C-62.5625 35.1875 -62.5625 35.1875 -60.5625 33.5625 C-57.375 32.75 -57.375 32.75 -53.5625 33.5625 C-50.5395949 36.29474115 -48.03248404 39.32906634 -45.5625 42.5625 C-40.32869303 38.18624788 -35.43373062 33.58704503 -30.625 28.75 C-29.94115234 28.07001953 -29.25730469 27.39003906 -28.55273438 26.68945312 C-27.90755859 26.04298828 -27.26238281 25.39652344 -26.59765625 24.73046875 C-26.0137915 24.14547607 -25.42992676 23.5604834 -24.82836914 22.95776367 C-23.45051155 21.75305236 -23.45051155 21.75305236 -23.5625 20.5625 C-38.0825 20.5625 -52.6025 20.5625 -67.5625 20.5625 Z " fill="#000000" transform="translate(171.5625,259.4375)"/>
<path d="M0 0 C1.16808701 -0.01268417 2.33617401 -0.02536835 3.53965759 -0.03843689 C4.8021785 -0.03550125 6.0646994 -0.03256561 7.36547852 -0.02954102 C8.66131363 -0.03478287 9.95714874 -0.04002472 11.29225159 -0.04542542 C14.0352654 -0.05435958 16.77798813 -0.0519306 19.52099609 -0.04199219 C23.0329973 -0.03050642 26.54399245 -0.05070442 30.05586147 -0.07990932 C33.40912046 -0.10268957 36.76214397 -0.09580405 40.11547852 -0.09204102 C41.37597519 -0.10327499 42.63647186 -0.11450897 43.93516541 -0.12608337 C45.10640457 -0.11670242 46.27764374 -0.10732147 47.484375 -0.09765625 C48.5145726 -0.09749008 49.5447702 -0.09732391 50.60618591 -0.09715271 C54.02155472 0.53668377 55.20515803 1.68618161 57.30688477 4.40405273 C57.80688477 7.40405273 57.80688477 7.40405273 57.30688477 10.40405273 C55.20515803 13.12192386 54.02155472 14.2714217 50.60618591 14.90525818 C49.06088951 14.90550743 49.06088951 14.90550743 47.484375 14.90576172 C46.31313583 14.91514267 45.14189667 14.92452362 43.93516541 14.93418884 C42.67466873 14.92295486 41.41417206 14.91172089 40.11547852 14.90014648 C38.81868668 14.90160172 37.52189484 14.90305695 36.18580627 14.90455627 C33.44446463 14.90593907 30.70364696 14.89340181 27.96240234 14.87060547 C24.44932176 14.84219204 20.93710965 14.84496682 17.4239645 14.85769558 C14.0710447 14.86632235 10.71838364 14.8512095 7.36547852 14.83764648 C5.47169716 14.84204994 5.47169716 14.84204994 3.53965759 14.84654236 C2.37157059 14.83385818 1.20348358 14.82117401 0 14.80810547 C-1.54410301 14.80000099 -1.54410301 14.80000099 -3.11940002 14.79173279 C-5.69311523 14.40405273 -5.69311523 14.40405273 -7.52403259 12.99989319 C-8.98161001 11.01024684 -9.09594867 9.85339498 -9.06811523 7.40405273 C-9.07584961 6.72342773 -9.08358398 6.04280273 -9.09155273 5.34155273 C-8.05798416 0.31557219 -4.55179594 0.02389084 0 0 Z " fill="#000000" transform="translate(98.693115234375,221.595947265625)"/>
<path d="M0 0 C1.14799072 -0.01260864 2.29598145 -0.02521729 3.47875977 -0.03820801 C4.71424561 -0.03011108 5.94973145 -0.02201416 7.22265625 -0.01367188 C8.49488037 -0.01749878 9.76710449 -0.02132568 11.07788086 -0.02526855 C13.76829452 -0.02799114 16.45725496 -0.02262001 19.14746094 -0.00390625 C22.5911037 0.01888451 26.03349952 0.00575844 29.47709656 -0.01819611 C32.76732753 -0.0361474 36.057409 -0.02356908 39.34765625 -0.01367188 C40.58314209 -0.0217688 41.81862793 -0.02986572 43.09155273 -0.03820801 C44.81353882 -0.01929504 44.81353882 -0.01929504 46.5703125 0 C47.579729 0.00318237 48.58914551 0.00636475 49.62915039 0.00964355 C53.0081869 0.65585051 54.19783459 1.83042165 56.28515625 4.51757812 C56.78515625 7.51757812 56.78515625 7.51757812 56.28515625 10.51757812 C54.18342952 13.23544925 52.99982621 14.38494709 49.5844574 15.01878357 C48.039161 15.01903282 48.039161 15.01903282 46.46264648 15.01928711 C45.29140732 15.02866806 44.12016815 15.03804901 42.91343689 15.04771423 C41.65294022 15.03648026 40.39244354 15.02524628 39.09375 15.01367188 C37.79695816 15.01512711 36.50016632 15.01658234 35.16407776 15.01808167 C32.42273611 15.01946446 29.68191845 15.0069272 26.94067383 14.98413086 C23.42759325 14.95571744 19.91538113 14.95849221 16.40223598 14.97122097 C13.04931618 14.97984774 9.69665512 14.96473489 6.34375 14.95117188 C4.44996864 14.95557533 4.44996864 14.95557533 2.51792908 14.96006775 C1.34984207 14.94738358 0.18175507 14.9346994 -1.02172852 14.92163086 C-2.56583153 14.91352638 -2.56583153 14.91352638 -4.14112854 14.90525818 C-6.71484375 14.51757812 -6.71484375 14.51757812 -8.5433197 13.20716858 C-10.54088673 10.32624591 -10.12955907 7.8945457 -9.71484375 4.51757812 C-6.78474133 0.67495075 -4.75311877 0.01498509 0 0 Z " fill="#000000" transform="translate(99.71484375,186.482421875)"/>
</svg>
